<mxfile host="app.diagrams.net" agent="Mozilla/5.0 (Windows NT 10.0; Win64; x64) AppleWebKit/537.36 (KHTML, like Gecko) Chrome/129.0.0.0 Safari/537.36" version="24.7.17">
  <diagram name="Página-1" id="XVklmOQ_ffI0HY0bFErE">
    <mxGraphModel dx="1956" dy="1129" grid="1" gridSize="10" guides="1" tooltips="1" connect="1" arrows="1" fold="1" page="1" pageScale="1" pageWidth="827" pageHeight="1169" math="0" shadow="0">
      <root>
        <mxCell id="0" />
        <mxCell id="1" parent="0" />
        <mxCell id="BQ4N9j2RJxe5oMDn88Q8-1" value="Visualisar Dashboard" style="swimlane;html=1;childLayout=stackLayout;startSize=20;rounded=0;shadow=0;comic=0;labelBackgroundColor=none;strokeWidth=1;fontFamily=Verdana;fontSize=12;align=center;" vertex="1" parent="1">
          <mxGeometry x="110" y="70" width="1260" height="760" as="geometry" />
        </mxCell>
        <mxCell id="BQ4N9j2RJxe5oMDn88Q8-2" value="API" style="swimlane;html=1;startSize=20;" vertex="1" parent="BQ4N9j2RJxe5oMDn88Q8-1">
          <mxGeometry y="20" width="370" height="740" as="geometry" />
        </mxCell>
        <mxCell id="BQ4N9j2RJxe5oMDn88Q8-3" value="¿Encuentra datos en la base de datos?" style="rhombus;whiteSpace=wrap;html=1;" vertex="1" parent="BQ4N9j2RJxe5oMDn88Q8-2">
          <mxGeometry x="32" y="160" width="150" height="125" as="geometry" />
        </mxCell>
        <mxCell id="BQ4N9j2RJxe5oMDn88Q8-4" style="edgeStyle=orthogonalEdgeStyle;rounded=0;orthogonalLoop=1;jettySize=auto;html=1;" edge="1" parent="BQ4N9j2RJxe5oMDn88Q8-2" source="BQ4N9j2RJxe5oMDn88Q8-5" target="BQ4N9j2RJxe5oMDn88Q8-8">
          <mxGeometry relative="1" as="geometry" />
        </mxCell>
        <mxCell id="BQ4N9j2RJxe5oMDn88Q8-5" value="Envia datos recolectados" style="rounded=1;whiteSpace=wrap;html=1;shadow=0;comic=0;labelBackgroundColor=none;strokeWidth=1;fontFamily=Verdana;fontSize=12;align=center;arcSize=50;" vertex="1" parent="BQ4N9j2RJxe5oMDn88Q8-2">
          <mxGeometry x="52" y="450" width="110" height="45" as="geometry" />
        </mxCell>
        <mxCell id="BQ4N9j2RJxe5oMDn88Q8-6" style="edgeStyle=orthogonalEdgeStyle;rounded=0;orthogonalLoop=1;jettySize=auto;html=1;" edge="1" parent="BQ4N9j2RJxe5oMDn88Q8-2" source="BQ4N9j2RJxe5oMDn88Q8-3" target="BQ4N9j2RJxe5oMDn88Q8-5">
          <mxGeometry relative="1" as="geometry">
            <Array as="points">
              <mxPoint x="107" y="480" />
            </Array>
          </mxGeometry>
        </mxCell>
        <mxCell id="BQ4N9j2RJxe5oMDn88Q8-7" value="SI" style="edgeLabel;html=1;align=center;verticalAlign=middle;resizable=0;points=[];" vertex="1" connectable="0" parent="BQ4N9j2RJxe5oMDn88Q8-6">
          <mxGeometry x="-0.835" y="-2" relative="1" as="geometry">
            <mxPoint x="-3" y="33" as="offset" />
          </mxGeometry>
        </mxCell>
        <mxCell id="BQ4N9j2RJxe5oMDn88Q8-8" value="Organiza los datos" style="rounded=1;whiteSpace=wrap;html=1;shadow=0;comic=0;labelBackgroundColor=none;strokeWidth=1;fontFamily=Verdana;fontSize=12;align=center;arcSize=50;" vertex="1" parent="BQ4N9j2RJxe5oMDn88Q8-2">
          <mxGeometry x="252" y="460" width="110" height="45" as="geometry" />
        </mxCell>
        <mxCell id="BQ4N9j2RJxe5oMDn88Q8-9" value="" style="endArrow=none;html=1;rounded=0;" edge="1" parent="BQ4N9j2RJxe5oMDn88Q8-2">
          <mxGeometry width="50" height="50" relative="1" as="geometry">
            <mxPoint x="20" y="620" as="sourcePoint" />
            <mxPoint x="20" y="60" as="targetPoint" />
          </mxGeometry>
        </mxCell>
        <mxCell id="BQ4N9j2RJxe5oMDn88Q8-10" value="Dashboard" style="swimlane;whiteSpace=wrap;html=1;" vertex="1" parent="BQ4N9j2RJxe5oMDn88Q8-1">
          <mxGeometry x="370" y="20" width="255" height="740" as="geometry" />
        </mxCell>
        <mxCell id="BQ4N9j2RJxe5oMDn88Q8-11" value="Pedir datos que mostrar" style="rounded=1;whiteSpace=wrap;html=1;shadow=0;comic=0;labelBackgroundColor=none;strokeWidth=1;fontFamily=Verdana;fontSize=12;align=center;arcSize=50;" vertex="1" parent="BQ4N9j2RJxe5oMDn88Q8-10">
          <mxGeometry x="70" y="225" width="110" height="45" as="geometry" />
        </mxCell>
        <mxCell id="BQ4N9j2RJxe5oMDn88Q8-12" value="Recibe datos" style="rounded=1;whiteSpace=wrap;html=1;shadow=0;comic=0;labelBackgroundColor=none;strokeWidth=1;fontFamily=Verdana;fontSize=12;align=center;arcSize=50;" vertex="1" parent="BQ4N9j2RJxe5oMDn88Q8-10">
          <mxGeometry x="97.5" y="470" width="110" height="45" as="geometry" />
        </mxCell>
        <mxCell id="BQ4N9j2RJxe5oMDn88Q8-13" value="App" style="swimlane;html=1;startSize=20;" vertex="1" parent="BQ4N9j2RJxe5oMDn88Q8-1">
          <mxGeometry x="625" y="20" width="315" height="740" as="geometry" />
        </mxCell>
        <mxCell id="BQ4N9j2RJxe5oMDn88Q8-14" value="Muestra mensaje de no hay datos&lt;span style=&quot;color: rgba(0, 0, 0, 0); font-family: monospace; font-size: 0px; text-align: start; text-wrap: nowrap;&quot;&gt;%3CmxGraphModel%3E%3Croot%3E%3CmxCell%20id%3D%220%22%2F%3E%3CmxCell%20id%3D%221%22%20parent%3D%220%22%2F%3E%3CmxCell%20id%3D%222%22%20value%3D%22Pedir%20datos%20que%20mostrar%22%20style%3D%22rounded%3D1%3BwhiteSpace%3Dwrap%3Bhtml%3D1%3Bshadow%3D0%3Bcomic%3D0%3BlabelBackgroundColor%3Dnone%3BstrokeWidth%3D1%3BfontFamily%3DVerdana%3BfontSize%3D12%3Balign%3Dcenter%3BarcSize%3D50%3B%22%20vertex%3D%221%22%20parent%3D%221%22%3E%3CmxGeometry%20x%3D%22-2167.5%22%20y%3D%22375%22%20width%3D%22110%22%20height%3D%2245%22%20as%3D%22geometry%22%2F%3E%3C%2FmxCell%3E%3C%2Froot%3E%3C%2FmxGraphModel%3E&lt;/span&gt;" style="rounded=1;whiteSpace=wrap;html=1;shadow=0;comic=0;labelBackgroundColor=none;strokeWidth=1;fontFamily=Verdana;fontSize=12;align=center;arcSize=50;" vertex="1" parent="BQ4N9j2RJxe5oMDn88Q8-13">
          <mxGeometry x="135" y="372.5" width="110" height="45" as="geometry" />
        </mxCell>
        <mxCell id="BQ4N9j2RJxe5oMDn88Q8-15" value="Muestra metricas&amp;nbsp;" style="rounded=1;whiteSpace=wrap;html=1;shadow=0;comic=0;labelBackgroundColor=none;strokeWidth=1;fontFamily=Verdana;fontSize=12;align=center;arcSize=50;" vertex="1" parent="BQ4N9j2RJxe5oMDn88Q8-13">
          <mxGeometry x="55" y="470" width="110" height="45" as="geometry" />
        </mxCell>
        <mxCell id="BQ4N9j2RJxe5oMDn88Q8-16" style="edgeStyle=orthogonalEdgeStyle;rounded=0;orthogonalLoop=1;jettySize=auto;html=1;" edge="1" parent="BQ4N9j2RJxe5oMDn88Q8-1" source="BQ4N9j2RJxe5oMDn88Q8-11" target="BQ4N9j2RJxe5oMDn88Q8-3">
          <mxGeometry relative="1" as="geometry">
            <mxPoint x="170" y="267.5" as="targetPoint" />
          </mxGeometry>
        </mxCell>
        <mxCell id="BQ4N9j2RJxe5oMDn88Q8-17" style="edgeStyle=orthogonalEdgeStyle;rounded=0;orthogonalLoop=1;jettySize=auto;html=1;" edge="1" parent="BQ4N9j2RJxe5oMDn88Q8-1" source="BQ4N9j2RJxe5oMDn88Q8-3" target="BQ4N9j2RJxe5oMDn88Q8-14">
          <mxGeometry relative="1" as="geometry">
            <Array as="points">
              <mxPoint x="150" y="340" />
              <mxPoint x="205" y="340" />
            </Array>
          </mxGeometry>
        </mxCell>
        <mxCell id="BQ4N9j2RJxe5oMDn88Q8-18" value="No" style="edgeLabel;html=1;align=center;verticalAlign=middle;resizable=0;points=[];" vertex="1" connectable="0" parent="BQ4N9j2RJxe5oMDn88Q8-17">
          <mxGeometry x="-0.5461" y="-2" relative="1" as="geometry">
            <mxPoint x="-11" y="-12" as="offset" />
          </mxGeometry>
        </mxCell>
        <mxCell id="BQ4N9j2RJxe5oMDn88Q8-19" style="edgeStyle=orthogonalEdgeStyle;rounded=0;orthogonalLoop=1;jettySize=auto;html=1;" edge="1" parent="BQ4N9j2RJxe5oMDn88Q8-1" source="BQ4N9j2RJxe5oMDn88Q8-8" target="BQ4N9j2RJxe5oMDn88Q8-12">
          <mxGeometry relative="1" as="geometry" />
        </mxCell>
        <mxCell id="BQ4N9j2RJxe5oMDn88Q8-20" value="" style="endArrow=none;html=1;rounded=0;" edge="1" parent="BQ4N9j2RJxe5oMDn88Q8-1">
          <mxGeometry width="50" height="50" relative="1" as="geometry">
            <mxPoint x="870" y="640" as="sourcePoint" />
            <mxPoint x="870" y="80" as="targetPoint" />
          </mxGeometry>
        </mxCell>
        <mxCell id="BQ4N9j2RJxe5oMDn88Q8-21" value="Usuario" style="swimlane;html=1;startSize=20;" vertex="1" parent="BQ4N9j2RJxe5oMDn88Q8-1">
          <mxGeometry x="940" y="20" width="320" height="740" as="geometry" />
        </mxCell>
        <mxCell id="BQ4N9j2RJxe5oMDn88Q8-22" value="" style="ellipse;whiteSpace=wrap;html=1;rounded=0;shadow=0;comic=0;labelBackgroundColor=none;strokeWidth=1;fillColor=#000000;fontFamily=Verdana;fontSize=12;align=center;" vertex="1" parent="BQ4N9j2RJxe5oMDn88Q8-21">
          <mxGeometry x="115" y="49" width="40" height="40" as="geometry" />
        </mxCell>
        <mxCell id="BQ4N9j2RJxe5oMDn88Q8-23" style="edgeStyle=orthogonalEdgeStyle;rounded=0;orthogonalLoop=1;jettySize=auto;html=1;" edge="1" parent="BQ4N9j2RJxe5oMDn88Q8-21" source="BQ4N9j2RJxe5oMDn88Q8-24" target="BQ4N9j2RJxe5oMDn88Q8-22">
          <mxGeometry relative="1" as="geometry" />
        </mxCell>
        <mxCell id="BQ4N9j2RJxe5oMDn88Q8-24" value="Usuario Autenticado" style="shape=note;whiteSpace=wrap;html=1;rounded=0;shadow=0;comic=0;labelBackgroundColor=none;strokeWidth=1;fontFamily=Verdana;fontSize=12;align=center;size=20;" vertex="1" parent="BQ4N9j2RJxe5oMDn88Q8-21">
          <mxGeometry x="185" y="30" width="90" height="78" as="geometry" />
        </mxCell>
        <mxCell id="BQ4N9j2RJxe5oMDn88Q8-25" style="edgeStyle=orthogonalEdgeStyle;rounded=0;orthogonalLoop=1;jettySize=auto;html=1;" edge="1" parent="BQ4N9j2RJxe5oMDn88Q8-21" source="BQ4N9j2RJxe5oMDn88Q8-26" target="BQ4N9j2RJxe5oMDn88Q8-27">
          <mxGeometry relative="1" as="geometry" />
        </mxCell>
        <mxCell id="BQ4N9j2RJxe5oMDn88Q8-26" value="Visualizar Dashboard" style="rounded=1;whiteSpace=wrap;html=1;shadow=0;comic=0;labelBackgroundColor=none;strokeWidth=1;fontFamily=Verdana;fontSize=12;align=center;arcSize=50;" vertex="1" parent="BQ4N9j2RJxe5oMDn88Q8-21">
          <mxGeometry x="107.5" y="580" width="100" height="30" as="geometry" />
        </mxCell>
        <mxCell id="BQ4N9j2RJxe5oMDn88Q8-27" value="" style="shape=mxgraph.bpmn.shape;html=1;verticalLabelPosition=bottom;labelBackgroundColor=#ffffff;verticalAlign=top;perimeter=ellipsePerimeter;outline=end;symbol=terminate;rounded=0;shadow=0;comic=0;strokeWidth=1;fontFamily=Verdana;fontSize=12;align=center;" vertex="1" parent="BQ4N9j2RJxe5oMDn88Q8-21">
          <mxGeometry x="137.5" y="650" width="40" height="40" as="geometry" />
        </mxCell>
        <mxCell id="BQ4N9j2RJxe5oMDn88Q8-28" style="edgeStyle=orthogonalEdgeStyle;rounded=0;orthogonalLoop=1;jettySize=auto;html=1;" edge="1" parent="BQ4N9j2RJxe5oMDn88Q8-21" source="BQ4N9j2RJxe5oMDn88Q8-29" target="BQ4N9j2RJxe5oMDn88Q8-32">
          <mxGeometry relative="1" as="geometry">
            <Array as="points">
              <mxPoint x="143" y="230" />
              <mxPoint x="143" y="230" />
            </Array>
          </mxGeometry>
        </mxCell>
        <mxCell id="BQ4N9j2RJxe5oMDn88Q8-29" value="" style="whiteSpace=wrap;html=1;rounded=0;shadow=0;comic=0;labelBackgroundColor=none;strokeWidth=1;fillColor=#000000;fontFamily=Verdana;fontSize=12;align=center;rotation=0;" vertex="1" parent="BQ4N9j2RJxe5oMDn88Q8-21">
          <mxGeometry x="40" y="150" width="185" height="10" as="geometry" />
        </mxCell>
        <mxCell id="BQ4N9j2RJxe5oMDn88Q8-30" style="edgeStyle=orthogonalEdgeStyle;rounded=0;orthogonalLoop=1;jettySize=auto;html=1;" edge="1" parent="BQ4N9j2RJxe5oMDn88Q8-21" source="BQ4N9j2RJxe5oMDn88Q8-22" target="BQ4N9j2RJxe5oMDn88Q8-29">
          <mxGeometry relative="1" as="geometry">
            <mxPoint x="135" y="210" as="targetPoint" />
            <Array as="points">
              <mxPoint x="135" y="152" />
              <mxPoint x="130" y="152" />
            </Array>
          </mxGeometry>
        </mxCell>
        <mxCell id="BQ4N9j2RJxe5oMDn88Q8-31" style="edgeStyle=orthogonalEdgeStyle;rounded=0;orthogonalLoop=1;jettySize=auto;html=1;" edge="1" parent="BQ4N9j2RJxe5oMDn88Q8-21" source="BQ4N9j2RJxe5oMDn88Q8-32" target="BQ4N9j2RJxe5oMDn88Q8-26">
          <mxGeometry relative="1" as="geometry">
            <Array as="points">
              <mxPoint x="153" y="570" />
              <mxPoint x="153" y="570" />
            </Array>
          </mxGeometry>
        </mxCell>
        <mxCell id="BQ4N9j2RJxe5oMDn88Q8-32" value="" style="whiteSpace=wrap;html=1;rounded=0;shadow=0;comic=0;labelBackgroundColor=none;strokeWidth=1;fillColor=#000000;fontFamily=Verdana;fontSize=12;align=center;rotation=0;" vertex="1" parent="BQ4N9j2RJxe5oMDn88Q8-21">
          <mxGeometry x="12.5" y="520" width="185" height="10" as="geometry" />
        </mxCell>
        <mxCell id="BQ4N9j2RJxe5oMDn88Q8-33" style="edgeStyle=orthogonalEdgeStyle;rounded=0;orthogonalLoop=1;jettySize=auto;html=1;" edge="1" parent="BQ4N9j2RJxe5oMDn88Q8-1" source="BQ4N9j2RJxe5oMDn88Q8-29" target="BQ4N9j2RJxe5oMDn88Q8-11">
          <mxGeometry relative="1" as="geometry">
            <Array as="points">
              <mxPoint x="810" y="175" />
              <mxPoint x="810" y="268" />
            </Array>
          </mxGeometry>
        </mxCell>
        <mxCell id="BQ4N9j2RJxe5oMDn88Q8-34" style="edgeStyle=orthogonalEdgeStyle;rounded=0;orthogonalLoop=1;jettySize=auto;html=1;" edge="1" parent="BQ4N9j2RJxe5oMDn88Q8-1" source="BQ4N9j2RJxe5oMDn88Q8-14" target="BQ4N9j2RJxe5oMDn88Q8-32">
          <mxGeometry relative="1" as="geometry">
            <Array as="points">
              <mxPoint x="1040" y="400" />
            </Array>
          </mxGeometry>
        </mxCell>
        <mxCell id="BQ4N9j2RJxe5oMDn88Q8-35" style="edgeStyle=orthogonalEdgeStyle;rounded=0;orthogonalLoop=1;jettySize=auto;html=1;" edge="1" parent="BQ4N9j2RJxe5oMDn88Q8-1" source="BQ4N9j2RJxe5oMDn88Q8-12" target="BQ4N9j2RJxe5oMDn88Q8-15">
          <mxGeometry relative="1" as="geometry" />
        </mxCell>
        <mxCell id="BQ4N9j2RJxe5oMDn88Q8-36" style="edgeStyle=orthogonalEdgeStyle;rounded=0;orthogonalLoop=1;jettySize=auto;html=1;" edge="1" parent="BQ4N9j2RJxe5oMDn88Q8-1" source="BQ4N9j2RJxe5oMDn88Q8-15" target="BQ4N9j2RJxe5oMDn88Q8-32">
          <mxGeometry relative="1" as="geometry">
            <Array as="points">
              <mxPoint x="1000" y="510" />
            </Array>
          </mxGeometry>
        </mxCell>
        <mxCell id="BQ4N9j2RJxe5oMDn88Q8-37" value="" style="endArrow=none;html=1;rounded=0;" edge="1" parent="1">
          <mxGeometry width="50" height="50" relative="1" as="geometry">
            <mxPoint x="130" y="710" as="sourcePoint" />
            <mxPoint x="980" y="710" as="targetPoint" />
          </mxGeometry>
        </mxCell>
        <mxCell id="BQ4N9j2RJxe5oMDn88Q8-38" value="" style="endArrow=none;html=1;rounded=0;" edge="1" parent="1">
          <mxGeometry width="50" height="50" relative="1" as="geometry">
            <mxPoint x="132" y="152" as="sourcePoint" />
            <mxPoint x="982" y="152" as="targetPoint" />
          </mxGeometry>
        </mxCell>
        <mxCell id="BQ4N9j2RJxe5oMDn88Q8-39" value="&lt;font style=&quot;font-size: 19px;&quot;&gt;Loop&lt;/font&gt;" style="text;html=1;align=center;verticalAlign=middle;resizable=0;points=[];autosize=1;strokeColor=none;fillColor=none;" vertex="1" parent="1">
          <mxGeometry x="145" y="153" width="70" height="40" as="geometry" />
        </mxCell>
      </root>
    </mxGraphModel>
  </diagram>
</mxfile>
